Coordinates
version=1
nRows=14
nColumns=63
inDegrees=yes

Units are S.I. units (second, meters, Newtons, ...)
If the header above contains a line with 'inDegrees', this indicates whether rotational values are in degrees (yes) or radians (no).

endheader
time	pelvis_tilt	pelvis_list	pelvis_rotation	pelvis_tx	pelvis_ty	pelvis_tz	hip_flexion_r	hip_adduction_r	hip_rotation_r	knee_angle_r	knee_angle_r_beta	ankle_angle_r	subtalar_angle_r	mtp_angle_r	hip_flexion_l	hip_adduction_l	hip_rotation_l	knee_angle_l	knee_angle_l_beta	ankle_angle_l	subtalar_angle_l	mtp_angle_l	L5_S1_Flex_Ext	L5_S1_Lat_Bending	L5_S1_axial_rotation	L4_L5_Flex_Ext	L4_L5_Lat_Bending	L4_L5_axial_rotation	L3_L4_Flex_Ext	L3_L4_Lat_Bending	L3_L4_axial_rotation	L2_L3_Flex_Ext	L2_L3_Lat_Bending	L2_L3_axial_rotation	L1_L2_Flex_Ext	L1_L2_Lat_Bending	L1_L2_axial_rotation	L1_T12_Flex_Ext	L1_T12_Lat_Bending	L1_T12_axial_rotation	Abs_r3	Abs_r2	Abs_r1	Abs_t1	Abs_t2	neck_flexion	neck_bending	neck_rotation	arm_flex_r	arm_add_r	arm_rot_r	elbow_flex_r	pro_sup_r	wrist_flex_r	wrist_dev_r	arm_flex_l	arm_add_l	arm_rot_l	elbow_flex_l	pro_sup_l	wrist_flex_l	wrist_dev_l
1.666667	5.005392	-6.150101	87.613464	0.242752	0.874348	0.571206	2.613042	6.465755	0.297325	16.227360	0.283221	16.212355	-17.335799	0.000000	1.328296	-7.061685	0.364110	15.683922	0.273736	31.620420	0.967263	0.000000	-0.069493	0.847450	-0.716254	-0.129055	1.127108	-0.761020	-0.114170	2.060489	-0.761020	-0.079423	2.060489	-0.626722	-0.064531	1.728119	-0.581956	-0.039708	1.312700	-0.537190	-0.496379	9.586520	-3.983588	0.000000	0.000000	14.040365	-2.693585	-5.548145	12.739723	-11.859571	118.088810	5.514749	2.426168	7.035441	-18.088334	5.278209	-6.384511	130.410455	0.321057	2.588535	-7.683500	-13.971629
1.685185	5.373445	-6.126360	86.928282	0.239380	0.874297	0.570719	4.514674	6.545625	0.788919	19.629746	0.342604	18.021869	-16.444614	0.000000	0.969382	-7.277864	-0.922912	15.323785	0.267450	32.223900	1.473243	0.000000	-0.087219	0.893292	-0.516546	-0.161974	1.188079	-0.548830	-0.143292	2.171951	-0.548830	-0.099683	2.171951	-0.451978	-0.080992	1.821601	-0.419694	-0.049837	1.383710	-0.387410	-0.622997	10.105100	-2.872875	0.000000	0.000000	14.591665	-2.564456	-6.590951	11.239555	-12.612444	118.560302	5.173843	2.401893	5.196474	-17.363743	5.254865	-6.185190	130.632337	0.774311	3.262420	-6.943509	-12.158469
1.703704	5.704911	-6.147079	86.262448	0.236049	0.874327	0.571021	6.752691	6.594161	1.111691	23.325599	0.407109	20.056191	-15.299137	0.000000	0.855958	-7.477790	-2.237912	15.219429	0.265629	32.903150	2.045804	0.000000	-0.106252	0.934236	-0.300861	-0.197320	1.242534	-0.319665	-0.174561	2.271502	-0.319665	-0.121435	2.271502	-0.263254	-0.098665	1.905095	-0.244450	-0.060712	1.447132	-0.225646	-0.758944	10.568268	-1.673300	0.000000	0.000000	15.271559	-2.414306	-7.445636	9.776384	-13.285616	119.173695	4.703022	2.581145	3.105870	-16.558608	5.370161	-6.038704	130.214800	1.373621	4.272866	-6.193066	-10.497142
1.722222	5.983567	-6.218796	85.629594	0.232830	0.874397	0.572104	9.277309	6.609940	1.257546	27.200436	0.474737	22.253524	-13.901798	0.000000	0.954391	-7.659118	-3.588961	15.312884	0.267260	33.595812	2.728359	0.000000	-0.126367	0.967803	-0.077877	-0.234676	1.287178	-0.082744	-0.207608	2.353117	-0.082744	-0.144425	2.353117	-0.068142	-0.117344	1.973545	-0.063275	-0.072206	1.499127	-0.058408	-0.902626	10.947985	-0.433128	0.000000	0.000000	16.083928	-2.307022	-8.135490	8.402049	-13.849592	119.981047	4.108113	3.241283	0.795386	-15.614861	5.606557	-5.965421	129.218005	2.106171	5.570862	-5.536040	-9.094174
1.740741	6.204721	-6.346381	85.063754	0.229710	0.874457	0.573920	12.031995	6.596017	1.282629	31.146132	0.543603	24.529646	-12.356892	0.000000	1.234345	-7.820059	-4.949134	15.546506	0.271338	34.267789	3.551204	0.000000	-0.146673	0.993609	0.138272	-0.272387	1.321500	0.146914	-0.240970	2.415861	0.146914	-0.167633	2.415861	0.120988	-0.136201	2.026168	0.112346	-0.083809	1.539101	0.103704	-1.047673	11.239906	0.769028	0.000000	0.000000	17.014225	-2.264184	-8.641319	7.148236	-14.293809	120.967242	3.419379	4.383041	-1.654608	-14.562507	5.927406	-5.964540	127.555176	2.944031	7.123646	-4.981307	-8.053434
1.759259	6.349318	-6.530712	84.593612	0.226707	0.874463	0.576403	14.962778	6.529156	1.208464	35.072595	0.612132	26.854908	-10.707147	0.000000	1.661604	-7.936197	-6.265861	15.862492	0.276853	34.871317	4.496068	0.000000	-0.166849	1.009156	0.334864	-0.309856	1.342178	0.355793	-0.274117	2.453663	0.355793	-0.190692	2.453663	0.293006	-0.154936	2.057872	0.272077	-0.095338	1.563183	0.251148	-1.191789	11.415779	1.862414	0.000000	0.000000	18.033201	-2.303092	-8.983702	6.043922	-14.612067	122.100666	2.680929	6.022609	-4.135393	-13.418621	6.308395	-6.048308	125.345047	3.854683	8.839530	-4.554692	-7.439309
1.777778	6.428689	-6.764712	84.235731	0.223823	0.874398	0.579449	18.006839	6.422016	1.059067	38.896575	0.678873	29.200011	-8.991232	0.000000	2.186153	-8.012960	-7.504895	16.199754	0.282739	35.394665	5.566213	0.000000	-0.186891	1.015872	0.508749	-0.347076	1.351110	0.540546	-0.307044	2.469992	0.540546	-0.213598	2.469992	0.445156	-0.173547	2.071567	0.413359	-0.106790	1.573586	0.381562	-1.334946	11.491752	2.829511	0.000000	0.000000	19.083130	-2.438483	-9.189484	5.087877	-14.833356	123.191321	1.945418	7.772075	-6.348030	-12.289078	6.731646	-6.195897	122.647603	4.793341	10.730043	-4.269234	-7.232052
1.796296	6.458636	-7.058680	83.980581	0.221121	0.874263	0.582940	21.116345	6.296143	0.891118	42.534818	0.742373	31.514150	-7.272217	0.000000	2.777483	-8.070657	-8.702211	16.503750	0.288045	35.809005	6.799277	0.000000	-0.204808	1.015237	0.658528	-0.380349	1.350266	0.699686	-0.336479	2.468448	0.699686	-0.234075	2.468448	0.576212	-0.190185	2.070272	0.535054	-0.117027	1.572603	0.493896	-1.462924	11.484569	3.662533	0.000000	0.000000	20.134445	-2.650936	-9.285550	4.296282	-14.971921	124.234136	1.247811	9.588518	-8.221829	-11.110059	7.164425	-6.395574	119.602677	5.723815	12.721130	-4.212636	-7.437213
1.814815	6.444927	-7.419747	83.830005	0.218621	0.874045	0.586670	24.238630	6.168922	0.734282	45.929882	0.801628	33.775132	-5.638628	0.000000	3.388568	-8.102490	-9.853688	16.696012	0.291400	36.044278	8.163200	0.000000	-0.216994	1.008093	0.776822	-0.402979	1.340763	0.825373	-0.356499	2.451076	0.825373	-0.248002	2.451076	0.679719	-0.201500	2.055702	0.631168	-0.123990	1.561535	0.582616	-1.549965	11.403745	4.320451	0.000000	0.000000	21.162542	-2.901510	-9.271663	3.685518	-15.054952	125.268554	0.651201	11.513774	-9.801505	-9.880239	7.550765	-6.643488	116.363024	6.605755	14.697656	-4.406211	-8.048739
1.833333	6.418613	-7.811533	83.884296	0.216187	0.873770	0.590431	27.240625	6.031622	0.504252	48.974631	0.854769	35.910266	-4.069638	0.000000	3.968873	-8.120471	-10.812988	16.739584	0.292161	36.082693	9.575356	0.000000	-0.226149	0.998538	0.847430	-0.419982	1.328056	0.900395	-0.371541	2.427845	0.900395	-0.258466	2.427845	0.741501	-0.210002	2.036219	0.688537	-0.129222	1.546735	0.635573	-1.615361	11.295661	4.713153	0.000000	0.000000	22.155582	-3.173175	-9.161755	3.227642	-15.108000	126.077735	0.164374	13.261084	-10.816552	-8.734808	7.890729	-6.910465	113.038822	7.407894	16.734218	-4.783084	-8.914223
1.851852	6.359963	-8.256564	83.958168	0.214028	0.873430	0.594163	30.144032	5.875775	0.362214	51.743972	0.903103	37.832534	-2.656912	0.000000	4.510387	-8.113339	-11.795401	16.649576	0.290590	35.915718	11.027507	0.000000	-0.228887	0.985461	0.905502	-0.425067	1.310664	0.962095	-0.376039	2.396051	0.962095	-0.261595	2.396051	0.792314	-0.212545	2.009553	0.735720	-0.130786	1.526480	0.679126	-1.634920	11.147735	5.036128	0.000000	0.000000	23.105634	-3.438815	-8.920673	2.926170	-15.190917	126.389411	-0.041429	14.610469	-11.494740	-7.921321	8.191232	-7.180045	110.048407	8.111415	18.739544	-5.473968	-9.752757
1.870370	6.300558	-8.719043	84.140441	0.212011	0.873052	0.597675	32.830365	5.695274	0.207299	54.167433	0.945400	39.461855	-1.427067	0.000000	4.971211	-8.095186	-12.692189	16.394344	0.286135	35.564977	12.469718	0.000000	-0.227243	0.972436	0.937642	-0.422012	1.293339	0.996244	-0.373337	2.364380	0.996244	-0.259716	2.364380	0.820437	-0.211018	1.982991	0.761834	-0.129846	1.506303	0.703231	-1.623171	11.000387	5.214882	0.000000	0.000000	23.997142	-3.739454	-8.662849	2.747649	-15.306047	126.307816	-0.024863	15.548607	-11.905022	-7.457090	8.452725	-7.425895	107.525600	8.683179	20.759410	-6.364563	-10.461221
1.888889	6.248941	-9.181489	84.436979	0.210113	0.872642	0.600858	35.237773	5.492460	-0.008049	56.227392	0.981353	40.724259	-0.439044	0.000000	5.345511	-8.065406	-13.450481	15.991483	0.279104	35.058481	13.816084	0.000000	-0.221976	0.959927	0.940813	-0.412232	1.276703	0.999614	-0.364685	2.333967	0.999614	-0.253697	2.333967	0.823211	-0.206127	1.957484	0.764411	-0.126837	1.486927	0.705610	-1.585555	10.858888	5.232520	0.000000	0.000000	24.831958	-4.050613	-8.437236	2.676169	-15.442826	126.416615	0.121383	15.803222	-12.074038	-7.237243	8.653022	-7.635266	105.493107	9.085667	22.739046	-7.353096	-11.084061
1.907407	6.191934	-9.614841	84.788289	0.208417	0.872234	0.603604	37.292332	5.254334	-0.217039	57.907939	1.010684	41.575639	0.276721	0.000000	5.599605	-8.011265	-14.138152	15.447770	0.269614	34.451481	15.058704	0.000000	-0.214371	0.945749	0.931946	-0.398108	1.257846	0.990192	-0.352190	2.299494	0.990192	-0.245004	2.299494	0.815452	-0.199065	1.928571	0.757206	-0.122491	1.464965	0.698959	-1.531229	10.698502	5.183202	0.000000	0.000000	25.548715	-4.379782	-8.355130	2.637133	-15.542912	126.539215	0.262827	16.320166	-12.224165	-7.171401	8.810488	-7.815701	104.079004	9.315561	24.557702	-8.228709	-11.563103
